<svg xmlns="http://www.w3.org/2000/svg" width="1440" height="900"><path d="M717,354L515,354L710,552Z" fill="#71c6ab" stroke="#71c6ab" stroke-width="1.51"/><path d="M515,354L511,562L710,552Z" fill="#70c6a9" stroke="#70c6a9" stroke-width="1.51"/><path d="M515,354L323,348L511,562Z" fill="#83ceb8" stroke="#83ceb8" stroke-width="1.51"/><path d="M507,150L323,348L515,354Z" fill="#94d6c5" stroke="#94d6c5" stroke-width="1.51"/><path d="M717,354L507,150L515,354Z" fill="#88d1bc" stroke="#88d1bc" stroke-width="1.51"/><path d="M323,348L314,558L511,562Z" fill="#83cdb5" stroke="#83cdb5" stroke-width="1.51"/><path d="M710,552L918,558L717,354Z" fill="#5fbe9a" stroke="#5fbe9a" stroke-width="1.51"/><path d="M727,756L918,558L710,552Z" fill="#53b78b" stroke="#53b78b" stroke-width="1.51"/><path d="M717,354L724,144L507,150Z" fill="#8bd2bd" stroke="#8bd2bd" stroke-width="1.51"/><path d="M933,339L724,144L717,354Z" fill="#78c9ad" stroke="#78c9ad" stroke-width="1.51"/><path d="M511,562L517,759L710,552Z" fill="#65bf99" stroke="#65bf99" stroke-width="1.51"/><path d="M323,760L517,759L511,562Z" fill="#6dbf99" stroke="#6dbf99" stroke-width="1.51"/><path d="M517,759L727,756L710,552Z" fill="#59b78d" stroke="#59b78d" stroke-width="1.51"/><path d="M918,558L933,339L717,354Z" fill="#62bf9b" stroke="#62bf9b" stroke-width="1.51"/><path d="M314,558L323,760L511,562Z" fill="#78c7a5" stroke="#78c7a5" stroke-width="1.51"/><path d="M727,756L923,750L918,558Z" fill="#49b07d" stroke="#49b07d" stroke-width="1.51"/><path d="M1129,550L1127,349L933,339Z" fill="#57b68b" stroke="#57b68b" stroke-width="1.51"/><path d="M933,339L926,144L724,144Z" fill="#7dcaad" stroke="#7dcaad" stroke-width="1.51"/><path d="M507,150L307,141L323,348Z" fill="#a3dbce" stroke="#a3dbce" stroke-width="1.51"/><path d="M323,348L109,549L314,558Z" fill="#90d3bc" stroke="#90d3bc" stroke-width="1.51"/><path d="M310,-51L307,141L507,150Z" fill="#b4e3d8" stroke="#b4e3d8" stroke-width="1.51"/><path d="M719,-57L507,150L724,144Z" fill="#9cd8c7" stroke="#9cd8c7" stroke-width="1.51"/><path d="M307,141L116,339L323,348Z" fill="#a7ded0" stroke="#a7ded0" stroke-width="1.51"/><path d="M314,558L116,746L323,760Z" fill="#80c7a4" stroke="#80c7a4" stroke-width="1.51"/><path d="M525,967L717,953L517,759Z" fill="#54a97a" stroke="#54a97a" stroke-width="1.51"/><path d="M517,759L717,953L727,756Z" fill="#51ac7c" stroke="#51ac7c" stroke-width="1.51"/><path d="M727,756L917,967L923,750Z" fill="#40a46d" stroke="#40a46d" stroke-width="1.51"/><path d="M116,339L109,549L323,348Z" fill="#9dd8c7" stroke="#9dd8c7" stroke-width="1.51"/><path d="M921,-55L719,-57L724,144Z" fill="#99d5c0" stroke="#99d5c0" stroke-width="1.51"/><path d="M933,339L1128,144L926,144Z" fill="#76c5a2" stroke="#76c5a2" stroke-width="1.51"/><path d="M1129,550L933,339L918,558Z" fill="#52b78a" stroke="#52b78a" stroke-width="1.51"/><path d="M1123,751L1129,550L918,558Z" fill="#42ac75" stroke="#42ac75" stroke-width="1.51"/><path d="M1123,751L918,558L923,750Z" fill="#40ab73" stroke="#40ab73" stroke-width="1.51"/><path d="M313,947L517,759L323,760Z" fill="#6bb68c" stroke="#6bb68c" stroke-width="1.51"/><path d="M313,947L525,967L517,759Z" fill="#60ae82" stroke="#60ae82" stroke-width="1.51"/><path d="M719,-57L506,-65L507,150Z" fill="#a9ded0" stroke="#a9ded0" stroke-width="1.51"/><path d="M109,549L116,746L314,558Z" fill="#8ccfb0" stroke="#8ccfb0" stroke-width="1.51"/><path d="M116,746L313,947L323,760Z" fill="#78bc94" stroke="#78bc94" stroke-width="1.51"/><path d="M307,141L98,154L116,339Z" fill="#b6e3d9" stroke="#b6e3d9" stroke-width="1.51"/><path d="M506,-65L310,-51L507,150Z" fill="#b5e3d9" stroke="#b5e3d9" stroke-width="1.51"/><path d="M926,144L921,-55L724,144Z" fill="#8fd1b6" stroke="#8fd1b6" stroke-width="1.51"/><path d="M719,-57L521,-252L506,-65Z" fill="#b2e0d6" stroke="#b2e0d6" stroke-width="1.51"/><path d="M1121,-53L921,-55L926,144Z" fill="#8eceaf" stroke="#8eceaf" stroke-width="1.51"/><path d="M1135,952L1123,751L923,750Z" fill="#329c5c" stroke="#329c5c" stroke-width="1.51"/><path d="M1127,349L1128,144L933,339Z" fill="#6abe96" stroke="#6abe96" stroke-width="1.51"/><path d="M1322,136L1128,144L1127,349Z" fill="#6cb990" stroke="#6cb990" stroke-width="1.51"/><path d="M116,339L-88,354L109,549Z" fill="#a5dbcc" stroke="#a5dbcc" stroke-width="1.51"/><path d="M119,-50L98,154L307,141Z" fill="#c6eae2" stroke="#c6eae2" stroke-width="1.51"/><path d="M717,953L917,967L727,756Z" fill="#41a16c" stroke="#41a16c" stroke-width="1.51"/><path d="M711,1158L917,967L717,953Z" fill="#3a9764" stroke="#3a9764" stroke-width="1.51"/><path d="M310,-51L119,-50L307,141Z" fill="#c7eae3" stroke="#c7eae3" stroke-width="1.51"/><path d="M316,-258L119,-50L310,-51Z" fill="#ceede9" stroke="#ceede9" stroke-width="1.51"/><path d="M506,-65L316,-258L310,-51Z" fill="#c3e8e2" stroke="#c3e8e2" stroke-width="1.51"/><path d="M721,-267L521,-252L719,-57Z" fill="#afdfd3" stroke="#afdfd3" stroke-width="1.51"/><path d="M98,154L-88,354L116,339Z" fill="#b4e2d8" stroke="#b4e2d8" stroke-width="1.51"/><path d="M109,549L-93,560L116,746Z" fill="#93d1b5" stroke="#93d1b5" stroke-width="1.51"/><path d="M-84,148L-88,354L98,154Z" fill="#bfe7e0" stroke="#bfe7e0" stroke-width="1.51"/><path d="M915,-255L721,-267L719,-57Z" fill="#a6dac9" stroke="#a6dac9" stroke-width="1.51"/><path d="M1128,144L1121,-53L926,144Z" fill="#84c8a5" stroke="#84c8a5" stroke-width="1.51"/><path d="M525,967L711,1158L717,953Z" fill="#469c6d" stroke="#469c6d" stroke-width="1.51"/><path d="M511,1158L711,1158L525,967Z" fill="#49986d" stroke="#49986d" stroke-width="1.51"/><path d="M1129,550L1330,358L1127,349Z" fill="#50ad7e" stroke="#50ad7e" stroke-width="1.51"/><path d="M1128,144L1322,136L1121,-53Z" fill="#7ebf99" stroke="#7ebf99" stroke-width="1.51"/><path d="M1321,744L1323,557L1129,550Z" fill="#38a063" stroke="#38a063" stroke-width="1.51"/><path d="M1321,744L1129,550L1123,751Z" fill="#359f61" stroke="#359f61" stroke-width="1.51"/><path d="M308,1158L511,1158L313,947Z" fill="#5da179" stroke="#5da179" stroke-width="1.51"/><path d="M313,947L511,1158L525,967Z" fill="#59a479" stroke="#59a479" stroke-width="1.51"/><path d="M116,746L118,967L313,947Z" fill="#7ab890" stroke="#7ab890" stroke-width="1.51"/><path d="M-88,354L-93,560L109,549Z" fill="#a1d8c6" stroke="#a1d8c6" stroke-width="1.51"/><path d="M-84,953L118,967L116,746Z" fill="#81bb94" stroke="#81bb94" stroke-width="1.51"/><path d="M1323,557L1330,358L1129,550Z" fill="#45a571" stroke="#45a571" stroke-width="1.51"/><path d="M917,967L1135,952L923,750Z" fill="#329a5c" stroke="#329a5c" stroke-width="1.51"/><path d="M1122,1159L1135,952L917,967Z" fill="#258c4e" stroke="#258c4e" stroke-width="1.51"/><path d="M915,-255L719,-57L921,-55Z" fill="#9ed6c0" stroke="#9ed6c0" stroke-width="1.51"/><path d="M-88,354L-289,561L-93,560Z" fill="#a6dac9" stroke="#a6dac9" stroke-width="1.51"/><path d="M119,-50L-84,148L98,154Z" fill="#ccece7" stroke="#ccece7" stroke-width="1.51"/><path d="M1543,562L1541,337L1330,358Z" fill="#449d6e" stroke="#449d6e" stroke-width="1.51"/><path d="M1135,952L1321,744L1123,751Z" fill="#2c9451" stroke="#2c9451" stroke-width="1.51"/><path d="M1121,-53L915,-255L921,-55Z" fill="#96d1b5" stroke="#96d1b5" stroke-width="1.51"/><path d="M-93,560L-91,746L116,746Z" fill="#92ceaf" stroke="#92ceaf" stroke-width="1.51"/><path d="M119,-50L-92,-67L-84,148Z" fill="#d6f0ed" stroke="#d6f0ed" stroke-width="1.51"/><path d="M521,-252L316,-258L506,-65Z" fill="#c1e7e1" stroke="#c1e7e1" stroke-width="1.51"/><path d="M721,-267L316,-258L521,-252Z" fill="#bee5dc" stroke="#bee5dc" stroke-width="1.51"/><path d="M1330,358L1322,136L1127,349Z" fill="#60b084" stroke="#60b084" stroke-width="1.51"/><path d="M1121,-53L1131,-259L915,-255Z" fill="#97cfb1" stroke="#97cfb1" stroke-width="1.51"/><path d="M118,967L308,1158L313,947Z" fill="#6dab83" stroke="#6dab83" stroke-width="1.51"/><path d="M-104,1172L929,1164L511,1158Z" fill="#539671" stroke="#539671" stroke-width="1.51"/><path d="M511,1158L929,1164L711,1158Z" fill="#3a8c61" stroke="#3a8c61" stroke-width="1.51"/><path d="M711,1158L929,1164L917,967Z" fill="#328f5a" stroke="#328f5a" stroke-width="1.51"/><path d="M-91,746L-84,953L116,746Z" fill="#89c29e" stroke="#89c29e" stroke-width="1.51"/><path d="M118,967L107,1161L308,1158Z" fill="#6fa782" stroke="#6fa782" stroke-width="1.51"/><path d="M316,-258L119,-265L119,-50Z" fill="#d8f0ee" stroke="#d8f0ee" stroke-width="1.51"/><path d="M721,-267L119,-265L316,-258Z" fill="#c9ebe5" stroke="#c9ebe5" stroke-width="1.51"/><path d="M929,1164L1122,1159L917,967Z" fill="#268950" stroke="#268950" stroke-width="1.51"/><path d="M1135,952L1329,955L1321,744Z" fill="#228a45" stroke="#228a45" stroke-width="1.51"/><path d="M1122,1159L1329,955L1135,952Z" fill="#1d8442" stroke="#1d8442" stroke-width="1.51"/><path d="M1543,562L1330,358L1323,557Z" fill="#3f9e69" stroke="#3f9e69" stroke-width="1.51"/><path d="M-84,953L107,1161L118,967Z" fill="#7ab08b" stroke="#7ab08b" stroke-width="1.51"/><path d="M308,1158L-104,1172L511,1158Z" fill="#679d7c" stroke="#679d7c" stroke-width="1.51"/><path d="M1333,-68L1131,-259L1121,-53Z" fill="#8dc5a2" stroke="#8dc5a2" stroke-width="1.51"/><path d="M915,-255L1131,-259L721,-267Z" fill="#a1d7be" stroke="#a1d7be" stroke-width="1.51"/><path d="M119,-265L-92,-67L119,-50Z" fill="#dcf2f2" stroke="#dcf2f2" stroke-width="1.51"/><path d="M-307,342L-289,561L-88,354Z" fill="#afdfd2" stroke="#afdfd2" stroke-width="1.51"/><path d="M1543,155L1322,136L1330,358Z" fill="#63ac81" stroke="#63ac81" stroke-width="1.51"/><path d="M1534,-50L1333,-68L1322,136Z" fill="#7cb58e" stroke="#7cb58e" stroke-width="1.51"/><path d="M1322,136L1333,-68L1121,-53Z" fill="#82be97" stroke="#82be97" stroke-width="1.51"/><path d="M-91,746L-287,950L-84,953Z" fill="#8abe9a" stroke="#8abe9a" stroke-width="1.51"/><path d="M-93,560L-289,561L-91,746Z" fill="#9cd4ba" stroke="#9cd4ba" stroke-width="1.51"/><path d="M-307,342L-88,354L-84,148Z" fill="#bde5de" stroke="#bde5de" stroke-width="1.51"/><path d="M-308,155L-307,342L-84,148Z" fill="#c7eae4" stroke="#c7eae4" stroke-width="1.51"/><path d="M1543,562L1323,557L1321,744Z" fill="#32975c" stroke="#32975c" stroke-width="1.51"/><path d="M1538,760L1543,562L1321,744Z" fill="#288f50" stroke="#288f50" stroke-width="1.51"/><path d="M-289,561L-298,758L-91,746Z" fill="#9ad0b2" stroke="#9ad0b2" stroke-width="1.51"/><path d="M-84,953L-104,1172L107,1161Z" fill="#79ab89" stroke="#79ab89" stroke-width="1.51"/><path d="M-307,342L-298,758L-289,561Z" fill="#a6d9c3" stroke="#a6d9c3" stroke-width="1.51"/><path d="M-304,-54L-308,155L-84,148Z" fill="#d7f0ed" stroke="#d7f0ed" stroke-width="1.51"/><path d="M1541,337L1543,155L1330,358Z" fill="#57a479" stroke="#57a479" stroke-width="1.51"/><path d="M1737,340L1543,155L1541,337Z" fill="#539c73" stroke="#539c73" stroke-width="1.51"/><path d="M1528,956L1538,760L1329,955Z" fill="#177e3a" stroke="#177e3a" stroke-width="1.51"/><path d="M1329,955L1538,760L1321,744Z" fill="#208744" stroke="#208744" stroke-width="1.51"/><path d="M1333,-68L1340,-252L1131,-259Z" fill="#8dc19d" stroke="#8dc19d" stroke-width="1.51"/><path d="M1530,-257L1340,-252L1333,-68Z" fill="#87ba96" stroke="#87ba96" stroke-width="1.51"/><path d="M-92,-67L-304,-54L-84,148Z" fill="#dcf2f1" stroke="#dcf2f1" stroke-width="1.51"/><path d="M119,-265L-93,-273L-92,-67Z" fill="#e3f4f6" stroke="#e3f4f6" stroke-width="1.51"/><path d="M721,-267L-93,-273L119,-265Z" fill="#d6f0ec" stroke="#d6f0ec" stroke-width="1.51"/><path d="M1122,1159L1333,1172L1329,955Z" fill="#157938" stroke="#157938" stroke-width="1.51"/><path d="M929,1164L1333,1172L1122,1159Z" fill="#1c7a40" stroke="#1c7a40" stroke-width="1.51"/><path d="M-104,1172L1333,1172L929,1164Z" fill="#398b61" stroke="#398b61" stroke-width="1.51"/><path d="M107,1161L-104,1172L308,1158Z" fill="#70a181" stroke="#70a181" stroke-width="1.51"/><path d="M-287,950L-104,1172L-84,953Z" fill="#83b390" stroke="#83b390" stroke-width="1.51"/><path d="M-298,758L-287,950L-91,746Z" fill="#91c5a2" stroke="#91c5a2" stroke-width="1.51"/><path d="M1333,1172L1528,956L1329,955Z" fill="#107835" stroke="#107835" stroke-width="1.51"/><path d="M1543,155L1534,-50L1322,136Z" fill="#72af87" stroke="#72af87" stroke-width="1.51"/><path d="M-293,-272L-304,-54L-92,-67Z" fill="#e7f6f8" stroke="#e7f6f8" stroke-width="1.51"/><path d="M1744,745L1543,562L1538,760Z" fill="#22864a" stroke="#22864a" stroke-width="1.51"/><path d="M1744,745L1730,551L1543,562Z" fill="#288550" stroke="#288550" stroke-width="1.51"/><path d="M1543,562L1730,551L1541,337Z" fill="#389161" stroke="#389161" stroke-width="1.51"/><path d="M1543,155L1741,-50L1534,-50Z" fill="#72a884" stroke="#72a884" stroke-width="1.51"/><path d="M1730,551L1737,340L1541,337Z" fill="#408f65" stroke="#408f65" stroke-width="1.51"/><path d="M1340,-252L1530,-257L1131,-259Z" fill="#8dbe9a" stroke="#8dbe9a" stroke-width="1.51"/><path d="M1131,-259L1730,-273L721,-267Z" fill="#94c8a5" stroke="#94c8a5" stroke-width="1.51"/><path d="M1534,-50L1530,-257L1333,-68Z" fill="#81b491" stroke="#81b491" stroke-width="1.51"/><path d="M1741,-50L1530,-257L1534,-50Z" fill="#7bac8a" stroke="#7bac8a" stroke-width="1.51"/><path d="M-308,155L-304,1153L-307,342Z" fill="#a7d9c3" stroke="#a7d9c3" stroke-width="1.51"/><path d="M-307,342L-304,1153L-298,758Z" fill="#98ccaa" stroke="#98ccaa" stroke-width="1.51"/><path d="M-298,758L-304,1153L-287,950Z" fill="#8bbb96" stroke="#8bbb96" stroke-width="1.51"/><path d="M-287,950L-304,1153L-104,1172Z" fill="#81ae8d" stroke="#81ae8d" stroke-width="1.51"/><path d="M-93,-273L-293,-272L-92,-67Z" fill="#e9f6fa" stroke="#e9f6fa" stroke-width="1.51"/><path d="M1333,1172L1531,1168L1528,956Z" fill="#066e2e" stroke="#066e2e" stroke-width="1.51"/><path d="M1734,959L1744,745L1538,760Z" fill="#167639" stroke="#167639" stroke-width="1.51"/><path d="M1730,551L1744,745L1737,340Z" fill="#2f8455" stroke="#2f8455" stroke-width="1.51"/><path d="M1734,959L1538,760L1528,956Z" fill="#107635" stroke="#107635" stroke-width="1.51"/><path d="M1737,340L1746,153L1543,155Z" fill="#599a75" stroke="#599a75" stroke-width="1.51"/><path d="M1744,745L1746,153L1737,340Z" fill="#3d8a63" stroke="#3d8a63" stroke-width="1.51"/><path d="M1731,1151L1734,959L1528,956Z" fill="#03682b" stroke="#03682b" stroke-width="1.51"/><path d="M1746,153L1741,-50L1543,155Z" fill="#699f7e" stroke="#699f7e" stroke-width="1.51"/><path d="M1734,959L1731,1151L1744,745Z" fill="#09682d" stroke="#09682d" stroke-width="1.51"/><path d="M1531,1168L1731,1151L1528,956Z" fill="#006629" stroke="#006629" stroke-width="1.51"/><path d="M1741,-50L1730,-273L1530,-257Z" fill="#7da88a" stroke="#7da88a" stroke-width="1.51"/><path d="M1530,-257L1730,-273L1131,-259Z" fill="#87b793" stroke="#87b793" stroke-width="1.51"/><path d="M721,-267L1730,-273L-93,-273Z" fill="#a9dbc9" stroke="#a9dbc9" stroke-width="1.51"/></svg>